<svg version="1.1" id="Layer_1" xmlns="http://www.w3.org/2000/svg" xmlns:xlink="http://www.w3.org/1999/xlink" x="0px" y="0px"
	 width="100%" viewBox="0 0 872 124" enable-background="new 0 0 872 124" xml:space="preserve">

<path fill="#7A83F7" opacity="1.000000" stroke="none" 
	d="
M135.278549,78.996048 
	C135.278778,63.194714 135.278778,47.892860 135.278778,32.158169 
	C101.741158,32.158169 68.617805,32.158169 34.136757,32.158169 
	C38.315189,35.101696 41.459309,37.379059 44.666267,39.564198 
	C54.799740,46.468895 65.057884,53.197292 75.037331,60.316933 
	C77.711197,62.224552 79.593773,62.021767 82.203491,60.648472 
	C90.743256,56.154659 99.372040,51.828621 107.996696,47.498035 
	C113.030266,44.970600 116.659683,45.754211 118.785385,49.679760 
	C120.834564,53.463982 119.530373,57.421429 114.751480,59.991562 
	C104.498871,65.505501 94.107224,70.761848 83.750267,76.080360 
	C79.655464,78.183113 75.897568,76.792358 72.481461,74.470459 
	C51.636002,60.301968 30.818638,46.091774 10.047025,31.815294 
	C5.638446,28.785246 6.177618,22.656958 11.111732,20.559118 
	C13.473912,19.554789 16.265188,19.174168 18.863527,19.168613 
	C58.011112,19.084898 97.158928,19.107853 136.306686,19.119871 
	C138.135620,19.120432 140.006927,19.030977 141.784546,19.370565 
	C145.375793,20.056622 147.059357,22.258163 147.047623,26.075895 
	C146.971786,50.730419 146.972290,75.385399 147.044800,100.039948 
	C147.056702,104.086990 144.986115,105.754341 141.328827,106.084305 
	C140.171371,106.188721 138.998520,106.132614 137.832703,106.132660 
	C97.852013,106.134445 57.871315,106.138344 17.890623,106.130760 
	C9.361447,106.129143 7.868987,104.658073 7.867027,96.350075 
	C7.863530,81.523903 7.862601,66.697731 7.871744,51.871563 
	C7.873758,48.603893 8.887901,45.429337 12.386983,45.135174 
	C14.809498,44.931519 17.750807,46.062325 19.754131,47.548653 
	C20.929298,48.420547 21.061443,51.154945 21.078529,53.056797 
	C21.187775,65.216614 21.176477,77.378136 21.102959,89.538483 
	C21.086693,92.228638 21.449127,93.921478 24.818649,93.912529 
	C60.967117,93.816536 97.115875,93.832184 133.264542,93.796577 
	C133.729019,93.796120 134.193237,93.526863 135.278320,93.190849 
	C135.278320,88.710419 135.278320,84.102974 135.278549,78.996048 
z"/>
<path fill="#7881F7" opacity="1.000000" stroke="none" 
	d="
M325.526489,44.729263 
	C330.805023,46.514015 335.678833,48.215809 340.690613,49.965775 
	C340.690613,40.075291 340.690613,28.930017 340.690613,17.393639 
	C346.296967,17.393639 351.347046,17.393639 356.768860,17.393639 
	C356.768860,45.944080 356.768860,74.494614 356.768860,103.380341 
	C351.887024,103.380341 347.154755,103.380341 342.234344,103.380341 
	C342.030365,101.362259 341.849884,99.576492 341.620697,97.309036 
	C329.662598,107.148582 317.267151,108.009628 305.382996,98.324059 
	C295.776215,90.494545 292.768372,74.539429 297.480255,62.526249 
	C302.118225,50.701649 311.998932,44.310295 325.526489,44.729263 
M339.318115,64.366989 
	C333.456116,57.950256 326.206696,56.217453 319.788025,59.698807 
	C313.532135,63.091877 310.296082,71.815201 312.366486,79.704842 
	C314.179535,86.613823 318.879486,90.661125 325.657379,91.150124 
	C332.766571,91.663040 337.761292,88.757324 340.642731,82.166290 
	C343.189575,76.340576 342.727203,70.573448 339.318115,64.366989 
z"/>
<path fill="#7982F7" opacity="1.000000" stroke="none" 
	d="
M476.112427,40.001144 
	C476.112488,34.017750 476.112488,28.533981 476.112488,22.882120 
	C477.076324,22.589464 477.828491,22.162891 478.580994,22.162317 
	C489.898956,22.153656 501.227905,21.902952 512.531982,22.316721 
	C524.522461,22.755613 533.353821,31.329626 535.702087,43.964603 
	C537.821960,55.370621 532.338440,67.773239 521.909851,71.631714 
	C515.916016,73.849373 508.947479,73.757469 502.388550,74.049034 
	C491.675934,74.525246 493.263062,72.657303 493.145813,83.366898 
	C493.074890,89.842636 493.132751,96.319778 493.132751,103.255829 
	C487.459259,103.255829 482.109528,103.255829 476.112335,103.255829 
	C476.112335,82.325958 476.112335,61.413364 476.112427,40.001144 
M506.279114,60.118259 
	C507.107391,60.100372 507.939636,60.128738 508.763275,60.057316 
	C515.674744,59.458000 519.569702,55.308552 519.746216,48.381832 
	C519.908813,41.999557 516.133423,37.517208 509.446960,36.732113 
	C505.192780,36.232601 500.868347,36.163170 496.580627,36.231300 
	C495.444763,36.249348 493.374420,37.457268 493.350403,38.173145 
	C493.108246,45.384995 493.202942,52.608150 493.202942,60.118679 
	C497.735657,60.118679 501.536133,60.118679 506.279114,60.118259 
z"/>
<path fill="#7B83F7" opacity="1.000000" stroke="none" 
	d="
M692.107544,77.000000 
	C692.107666,56.884670 692.107666,37.269344 692.107666,17.322668 
	C697.647156,17.322668 702.730896,17.322668 708.432434,17.322668 
	C708.432434,28.298244 708.432434,39.347488 708.432434,49.893276 
	C714.443542,48.071426 719.915405,45.724110 725.615173,44.829510 
	C737.341003,42.989105 746.862915,49.887081 747.619324,61.674637 
	C748.500732,75.410614 747.825012,89.246498 747.825012,103.381454 
	C742.538330,103.381454 737.482300,103.381454 731.863647,103.381454 
	C731.863647,94.182167 731.864136,85.234070 731.863342,76.285973 
	C731.863098,73.954376 731.962769,71.617157 731.837219,69.292198 
	C731.408813,61.358261 728.325195,57.893875 721.682495,57.741642 
	C714.049744,57.566723 709.151245,61.667629 708.881287,69.269775 
	C708.538757,78.917084 708.520630,88.591537 708.828796,98.239395 
	C708.971985,102.719711 707.538391,104.220268 703.161011,103.793144 
	C699.729736,103.458351 696.239624,103.726013 692.107483,103.726013 
	C692.107483,94.692131 692.107483,86.096069 692.107544,77.000000 
z"/>
<path fill="#7A83F7" opacity="1.000000" stroke="none" 
	d="
M439.353394,90.738342 
	C440.263367,90.217896 441.004913,89.953560 441.320404,89.431664 
	C446.455200,80.937561 453.460754,85.728951 460.001068,86.185120 
	C458.714844,97.368317 443.608215,107.647781 425.452728,103.967613 
	C409.411011,100.715912 400.088470,86.067650 403.225311,67.828209 
	C406.133911,50.916084 421.466125,41.627506 440.802551,45.181561 
	C454.915771,47.775581 463.102386,60.036720 461.245056,77.746490 
	C447.403046,77.746490 433.491089,77.746490 419.645325,77.746490 
	C418.535736,87.793839 427.311493,93.493401 439.353394,90.738342 
M423.075928,66.992241 
	C430.467407,66.992241 437.858887,66.992241 445.359924,66.992241 
	C443.760620,59.098480 440.070984,55.990490 432.932068,56.008221 
	C425.186371,56.027451 421.267487,59.207306 419.790741,66.814751 
	C420.617218,66.874786 421.422913,66.933311 423.075928,66.992241 
z"/>
<path fill="#7A83F7" opacity="1.000000" stroke="none" 
	d="
M774.103027,47.940727 
	C784.371826,43.169132 794.455078,43.134148 804.306824,47.575523 
	C814.110474,51.995190 819.531250,64.802170 817.413818,77.789230 
	C803.595642,77.789230 789.682800,77.789230 775.451538,77.789230 
	C775.647034,84.147583 778.216125,88.239479 783.668396,90.532631 
	C789.176819,92.849419 796.176208,92.339760 799.320740,88.005264 
	C802.149109,84.106483 805.001465,83.859329 808.963135,84.932724 
	C811.343567,85.577690 813.846313,85.771645 816.267090,86.163910 
	C815.907043,94.922928 806.167725,103.049049 793.303162,104.460014 
	C779.161926,106.010994 765.823486,100.279305 761.047974,86.677414 
	C755.945007,72.142799 760.277649,54.387383 774.103027,47.940727 
M776.371277,66.667778 
	C784.782715,66.667778 793.194092,66.667778 801.622925,66.667778 
	C800.833618,60.157833 796.916931,56.435711 790.577148,56.017208 
	C782.937744,55.512917 778.036987,58.847744 776.371277,66.667778 
z"/>
<path fill="#7A83F7" opacity="1.000000" stroke="none" 
	d="
M228.298645,48.370461 
	C229.245590,47.230354 230.148880,46.012726 231.110031,45.965183 
	C235.415100,45.752251 239.736649,45.872524 244.352936,45.872524 
	C244.648788,47.517181 244.901810,48.923672 245.211197,50.643501 
	C245.798431,50.401226 246.409897,50.287071 246.846985,49.948086 
	C254.444702,44.055439 262.933441,43.373985 271.832825,45.894230 
	C278.534698,47.792152 283.349670,52.474564 283.654877,59.248234 
	C284.312012,73.832062 283.856750,88.466019 283.856750,103.400307 
	C278.672852,103.400307 273.750580,103.400307 268.283905,103.400307 
	C268.185333,101.815544 268.006073,100.233559 268.001648,98.651077 
	C267.973145,88.489120 268.046387,78.326492 267.955627,68.165245 
	C267.904053,62.391369 265.179565,58.845268 260.421173,57.903183 
	C253.962509,56.624481 248.208481,59.075935 246.243423,64.378250 
	C245.342972,66.807976 244.994186,69.556137 244.951111,72.169044 
	C244.800156,81.329071 244.801132,90.494453 244.940979,99.654800 
	C244.987213,102.682152 243.907898,103.664185 240.902985,103.785271 
	C228.271957,104.294266 228.274628,104.380539 228.275635,91.812195 
	C228.276779,77.485344 228.279572,63.158497 228.298645,48.370461 
z"/>
<path fill="#7A83F7" opacity="1.000000" stroke="none" 
	d="
M651.982727,57.631851 
	C643.177307,58.451736 638.335999,63.452759 637.748291,71.831177 
	C636.930237,83.493141 641.231689,90.118271 650.625000,91.482124 
	C655.832947,92.238297 660.813110,90.667671 663.183716,86.219406 
	C665.570068,81.741676 668.532837,81.556694 672.496155,82.230698 
	C674.927429,82.644165 677.367676,83.005219 679.753662,83.381889 
	C679.735596,94.140106 668.461975,104.471100 652.656738,104.694733 
	C634.605103,104.950157 621.617615,93.079124 621.182617,75.626869 
	C620.795654,60.098995 629.631226,45.493404 651.531982,44.533871 
	C666.068481,43.896980 678.344055,51.881771 679.965027,65.681145 
	C677.085266,66.096031 674.183472,66.520958 671.279419,66.930695 
	C667.808350,67.420456 665.214661,67.275566 663.443665,63.076458 
	C661.623169,58.759853 656.991272,57.700226 651.982727,57.631851 
z"/>
<path fill="#7A83F7" opacity="1.000000" stroke="none" 
	d="
M601.723877,72.996117 
	C601.754456,76.989548 601.863708,80.486496 601.796936,83.980087 
	C601.704285,88.834290 604.323242,91.249092 608.841003,91.012939 
	C616.197937,90.628365 613.117065,95.981224 613.697571,99.276474 
	C614.419800,103.375961 611.967834,104.101662 608.639221,103.729149 
	C608.310364,103.692345 607.973755,103.723694 607.640747,103.724434 
	C590.028381,103.763741 584.996948,98.783905 584.989197,81.299278 
	C584.985840,73.815483 584.988586,66.331688 584.988586,58.249573 
	C581.395203,58.249573 578.008789,58.249573 574.245361,58.249573 
	C574.245361,53.941463 574.245361,50.224453 574.245361,46.517334 
	C585.596863,43.688812 585.596863,43.688812 587.214417,27.366066 
	C591.739563,27.366066 596.316589,27.366066 601.724243,27.366066 
	C601.724243,31.364990 602.025513,35.478455 601.646484,39.528252 
	C601.192810,44.375763 602.464722,46.853138 607.822693,45.911869 
	C609.545959,45.609116 611.367310,45.864433 613.431152,45.864433 
	C613.431152,50.072323 613.431152,53.660526 613.431152,57.787670 
	C609.759583,57.787670 606.188904,57.787670 601.724121,57.787670 
	C601.724121,63.029064 601.724121,67.763603 601.723877,72.996117 
z"/>
<path fill="#7B84F7" opacity="1.000000" stroke="none" 
	d="
M209.728577,58.000046 
	C209.728455,71.974060 209.620514,85.449501 209.799774,98.921127 
	C209.848557,102.587852 208.776321,104.061569 204.996918,103.788582 
	C201.219421,103.515739 197.406845,103.728691 193.241455,103.728691 
	C193.241455,76.435982 193.241455,49.607151 193.241455,22.131794 
	C197.927490,22.131794 202.554123,21.872822 207.108032,22.333160 
	C208.113464,22.434795 209.580246,25.068380 209.612167,26.562178 
	C209.832382,36.870922 209.728531,47.186592 209.728577,58.000046 
z"/>
<path fill="#7C84F7" opacity="1.000000" stroke="none" 
	d="
M856.103027,46.933090 
	C859.093079,46.104614 861.724548,45.429432 864.776611,44.646332 
	C864.776611,49.941223 864.776611,54.384190 864.776611,59.453831 
	C863.228394,59.597416 861.648926,59.759663 860.066772,59.887974 
	C851.708252,60.565876 847.321289,64.831696 847.052490,73.219521 
	C846.775696,81.857857 846.794495,90.512718 846.964233,99.154846 
	C847.032166,102.610573 845.924316,103.757828 842.425903,103.807808 
	C830.265076,103.981552 830.266785,104.101830 830.266785,91.889984 
	C830.266785,78.586922 830.266785,65.283852 830.266785,51.980789 
	C830.266785,50.180489 830.266785,48.380192 830.266785,46.227959 
	C835.619080,46.227959 840.493347,46.227959 845.766296,46.227959 
	C845.896729,48.550381 846.023987,50.817539 846.152771,53.111446 
	C849.355347,51.099709 852.549927,49.093048 856.103027,46.933090 
z"/>
<path fill="#7B84F7" opacity="1.000000" stroke="none" 
	d="
M383.853699,103.728546 
	C380.433777,103.728317 377.480591,103.728317 374.267517,103.728317 
	C374.267517,84.279961 374.267517,65.410606 374.267517,46.201134 
	C379.640717,46.201134 384.850861,46.201134 390.729004,46.201134 
	C390.729004,48.658344 390.729004,50.934376 390.729004,53.210407 
	C390.729004,67.844635 390.730621,82.478867 390.728241,97.113098 
	C390.727173,103.692017 390.723511,103.692017 383.853699,103.728546 
z"/>
<path fill="#7780F7" opacity="1.000000" stroke="none" 
	d="
M547.998230,90.987610 
	C547.998230,75.887604 547.998230,61.285732 547.998230,46.280029 
	C553.332520,46.280029 558.363037,46.280029 563.763184,46.280029 
	C563.763184,65.150597 563.763184,84.001175 563.763184,103.280487 
	C558.747375,103.280487 553.717957,103.280487 547.998230,103.280487 
	C547.998230,99.332008 547.998230,95.408882 547.998230,90.987610 
z"/>
<path fill="#7D85F7" opacity="1.000000" stroke="none" 
	d="
M391.569153,26.467342 
	C390.969421,32.985069 388.317749,36.300880 383.318726,36.852715 
	C379.073334,37.321354 375.896667,35.337463 374.038666,31.610662 
	C371.588928,26.696987 373.693634,21.246819 378.587189,19.201794 
	C384.206787,16.853352 388.960480,19.406630 391.569153,26.467342 
z"/>
<path fill="#7C85F7" opacity="1.000000" stroke="none" 
	d="
M553.730591,36.559090 
	C547.038940,32.747414 545.156250,27.410913 548.450745,22.533489 
	C551.438416,18.110300 557.922363,17.106165 562.033875,20.534430 
	C565.498962,23.423651 566.414307,27.137329 564.664001,31.258347 
	C562.696167,35.891392 558.913696,37.383110 553.730591,36.559090 
z"/>

</svg>